<?xml version="1.0" encoding="UTF-8"?>
<svg width="793.7007874015749" height="1122.5196850393702" xmlns="http://www.w3.org/2000/svg">

 <g>
  <title>Layer 1</title>
  <g externalResourcesRequired="false" id="layer1">
   <path fill="#ff0000" id="path13" d="m606.556396,610.449951c-7.007996,0 -14.567444,-2.954102 -16.799133,-6.564392c-2.231079,-3.610657 -6.836182,-6.564758 -10.233887,-6.564758c-3.397644,0 -6.177185,2.954102 -6.177185,6.564758c0,3.610291 4.256897,6.564392 9.459717,6.564392c19.477539,0 16.459167,12.844238 -4.301941,18.311523c-23.96283,6.309143 -46.353638,3.055237 -40.801025,-5.929199c1.977905,-3.19989 0.467651,-5.817627 -3.355957,-5.817627c-3.823242,0 -6.951904,4.7995 -6.951904,10.667419c0,8.535339 -4.262939,9.812195 -21.334839,6.389832c-95.13855,-19.074768 -102.99472,-15.000122 -128.861511,66.835388c-7.807159,24.699524 -24.116089,43.41748 -33.030121,37.908752c-3.347107,-2.069031 -10.543671,0.696838 -15.993011,6.145508c-5.4487,5.44928 -11.907715,9.907532 -14.352997,9.907532c-4.328735,0 -1.332916,-71.603699 5.502655,-131.506958l3.395538,-29.755859l-66.076721,-32.606323c-118.946014,-58.69516 -155.941467,-86.658661 -155.941467,-117.873291c0,-17.134613 3.916534,-22.483368 23.198753,-31.678284c40.655113,-19.387024 49.802834,-16.703247 147.243782,43.192963c26.948914,16.565826 50.921204,28.931732 53.271454,27.479095c5.547424,-3.428436 18.278046,-68.451935 22.427917,-114.556396c5.179108,-57.538025 18.233582,-129.645386 30.717102,-169.671646c12.397888,-39.752365 75.873962,-50.672333 87.195801,-15.000732c2.272247,7.158875 -0.632477,40.469589 -6.454376,74.024338c-5.821686,33.554504 -13.572754,84.731964 -17.224243,113.727356c-3.651733,28.995087 -8.497223,66.011841 -10.767303,82.258667c-2.269501,16.247375 -4.248627,41.35611 -4.396423,55.798401c-0.244324,23.78006 1.979767,27.358368 23.570496,37.914886c22.410889,10.958984 73.81839,27.323364 110.731537,35.250244c19.426025,4.171204 59.080322,21.360718 59.080322,25.609924c0,1.636047 -5.733276,2.974487 -12.741028,2.974487z"/>
  </g>
 </g>
</svg>